<svg width="200" height="100" viewBox="0 0 485 364" fill="none" xmlns="http://www.w3.org/2000/svg">
<path d="M7.8338 81.9405C13.1161 88.2725 17.7146 95.1703 23.7017 100.918C30.657 107.595 38.5441 112.863 47.3206 116.826C47.6927 116.992 48.1162 117.041 48.5882 117.019C44.6099 113.722 40.7344 110.354 36.9467 106.878C23.6594 94.6862 12.8589 80.7182 6.24249 63.7884C2.61508 54.5097 0.188751 44.9526 0.0375061 34.9176C0.0314331 34.4184 0.0495911 33.9131 0.0949707 33.417C0.113129 33.2294 0.240204 33.0509 0.385406 32.7091C2.29138 34.0493 3.27463 35.9704 4.13382 37.8915C7.43448 45.2945 10.5445 52.7852 13.8966 60.164C19.9291 73.4453 28.3214 85.0959 38.656 95.3669C38.9767 95.6846 46.0529 103.871 46.9575 103.668C34.6928 86.7962 18.4528 61.1503 15.8147 40.224C14.9797 33.5925 14.783 26.9549 16.2563 20.2114C16.7283 21.4276 17.2457 22.6256 17.6631 23.8599C21.3268 34.6604 24.8423 45.5123 28.6603 56.2583C32.9562 68.3506 38.3837 79.8893 46.5128 89.9728C46.9394 90.5022 48.449 92.7984 49.4534 93.1463C40.5135 76.8942 32.3603 58.5788 30.775 40.0939C29.9067 29.9741 30.6147 19.8937 32.0759 9.81326C34.1301 23.3849 37.5669 36.6148 41.8659 49.6056C46.1588 62.5783 50.591 75.5237 57.8488 87.2681C57.1772 84.1429 56.1062 81.1388 55.6826 77.9652C54.7599 71.0553 54.7629 64.2271 57.0289 57.538C57.1197 57.2658 57.1802 56.9753 57.3193 56.7303C57.5886 56.2523 57.5977 55.4385 58.2723 55.4233C58.9712 55.4052 59.0135 56.1978 59.1981 56.7C61.1373 61.9702 62.1236 67.4945 63.3972 72.937C65.4151 81.5441 68.2136 89.9092 71.0362 98.2713C71.1482 98.598 71.3539 98.8945 71.6504 99.1789C71.4507 96.4137 70.8365 93.703 70.891 90.9288C70.9515 87.8853 71.4023 84.9416 72.6306 82.125C73.2326 80.7455 73.7227 80.8786 74.4156 82.0312C76.385 85.3107 77.8766 88.8322 79.0746 92.4263C82.5265 102.797 87.6847 112.27 93.6204 121.382C94.9425 123.415 95.8985 125.687 97.1208 128.038C97.4747 127.154 96.3917 124.961 96.1375 124.38C95.1603 122.147 94.879 121.527 93.8776 119.306C92.852 117.037 91.0459 111.126 90.5225 108.936C87.8299 97.7176 92.852 100.589 95.3539 103.502C97.2296 105.683 101.371 113.737 102.684 116.181C104.63 119.8 104.736 121.751 106.566 128.6C106.787 129.426 107.168 130.818 107.195 131.883C108.941 131.051 109.836 129.562 110.992 128.389C114.916 124.41 119.106 123.639 124.107 126.056C127.71 127.796 128.321 130.661 125.762 133.698C125.141 134.433 124.276 134.993 123.844 136.245C127.876 134.581 131.797 133.589 135.945 133.867C138.338 134.028 140.649 134.485 142.682 135.855C144.077 136.793 144.237 137.77 142.846 138.926C141.294 140.218 139.376 140.895 137.76 142.166C140.855 141.779 143.887 141.08 147.006 141.038C149.172 141.007 151.317 141.101 153.416 141.646C156.781 142.517 157.652 144.471 155.967 147.745C159.14 147.327 162.184 147.379 165.182 148.129C165.878 148.301 166.583 148.459 167.257 148.698C171.042 150.041 171.599 151.463 169.599 155.021C172.76 154.809 175.852 154.688 178.796 155.662C181.116 156.43 183.7 156.911 184.726 159.71C185.001 160.466 185.957 160.324 186.635 160.451C189.484 160.987 191.339 161.298 193.735 162.989C194.806 163.746 195.502 165.419 195.928 166.638C196.518 168.323 194.271 170.749 195.928 170.949C200.503 171.506 208.003 172.329 212.477 174.319C213.339 174.704 213.745 175.085 214.586 174.918C216.864 174.468 219.039 173.751 220.96 172.435C227.126 168.217 233.116 163.758 238.9 159.032C245.626 153.535 250.209 146.314 254.759 139.077C256.59 136.164 258.414 133.244 260.156 130.276C263.209 125.076 264.54 119.306 264.797 113.401C265.145 105.378 268.373 98.8219 273.498 92.8468C283.494 81.1993 293.411 69.4851 303.168 57.6379C308.501 51.1637 313.439 44.3657 318.558 37.716C318.945 37.2138 319.359 36.7328 319.828 36.1549C320.839 43.9996 316.736 58.2127 302.623 72.3532C305.01 72.0355 306.907 71.4092 308.728 70.5561C316.104 67.0951 321.849 61.5557 327.204 55.6351C337.944 43.7546 346.352 30.2252 354.354 16.4388C357.161 11.6012 359.796 6.6669 362.223 1.62365C362.477 1.09422 362.537 0.343933 363.442 0.0292969C363.85 5.18146 363.557 10.2035 362.383 15.1651C358.801 30.3009 350.956 43.0557 340.461 54.3282C335.515 59.6407 330.284 64.6476 324.639 69.2159C324.267 69.5154 323.767 69.7151 323.577 70.5864C327.897 69.0253 331.857 67.1042 335.724 65.0167C351.513 56.4792 365.239 45.1946 378.245 32.9541C386.247 25.424 393.828 17.4825 401.259 9.39576C401.976 8.61522 402.732 7.87704 403.603 7.21146C402.287 12.4453 400.16 17.304 397.513 21.9479C389.411 36.167 377.879 47.0764 364.504 56.219C359.17 59.8645 353.782 63.4223 348.206 66.6927C347.882 66.8833 347.368 66.9438 347.326 67.7062C363.529 60.7721 378.154 51.3663 392.243 41.1104C406.253 30.912 420.627 21.0857 431.451 7.14188C429.669 12.3092 427.283 17.1648 424.23 21.6908C417.471 31.7167 408.096 38.9201 398.239 45.5607C390.812 50.5646 383.149 55.2025 375.374 59.6951C382.892 58.4729 390.119 56.3824 397.047 53.2027C408.105 48.1292 417.728 40.8321 427.431 33.6832C436.041 27.3391 444.427 20.6924 452.928 14.197C453.651 13.6433 454.314 12.9505 455.482 12.6873C454.305 15.6582 452.329 17.9151 450.442 20.1841C442.24 30.0528 432.28 37.9036 421.643 44.9435C406.108 55.2206 389.069 62.4724 371.955 69.5729C367.387 71.4698 362.852 73.4423 358.389 75.7567C359.766 75.4511 361.155 75.1879 362.522 74.837C383.052 69.5426 402.956 62.3786 422.714 54.7699C440.255 48.0143 457.103 39.9487 472.481 28.9607C472.696 29.6807 472.058 29.8713 471.773 30.2404C471.471 30.6367 471.077 30.9634 470.714 31.3113C461.442 40.1696 450.693 46.91 439.469 52.9426C414.516 66.3509 388.029 75.9291 361.024 84.2004C358.359 85.0172 355.703 85.8613 352.659 86.8113C367.118 88.212 452.239 63.2771 485 48.4892C483.394 49.6722 481.808 50.8853 480.175 52.0289C462.812 64.2029 443.728 72.8796 423.8 79.8832C406.244 86.0519 388.31 90.8471 370.191 95.01C366.434 95.8722 362.713 96.8978 359.022 98.0565C399.111 94.3353 438.997 89.4917 477.709 77.6415C474.614 79.5656 471.268 80.8877 467.916 82.1734C448.705 89.5371 428.825 94.5773 408.837 99.2696C388.489 104.047 367.892 107.254 347.111 109.38C346.657 109.426 346.122 109.308 345.556 110.031C350.13 109.852 354.481 109.768 358.822 109.501C380.157 108.197 401.494 106.999 422.856 106.21C433.46 105.816 444.061 105.124 454.486 102.891C455.152 102.749 455.851 102.413 456.774 102.764C455.902 104.044 454.725 104.782 453.539 105.505C445.925 110.158 437.399 112.142 428.792 113.831C411.2 117.283 393.365 118.239 375.504 118.653C362.958 118.946 350.402 118.892 337.85 119.016C332.477 119.071 354.066 121.415 366.388 122.084C379.428 122.792 392.5 122.783 405.521 123.905C413.832 124.622 422.058 125.896 430.22 127.59C430.886 127.729 431.863 127.629 432.035 128.461C432.217 129.336 431.33 129.826 430.731 130.27C429.031 131.529 427.056 132.204 424.995 132.6C413.641 134.796 402.205 135.202 390.706 134.116C373.964 132.536 357.461 129.263 340.821 126.961C339.466 126.773 338.107 126.585 336.746 126.455C336.943 126.525 337.133 126.579 337.318 126.607C348.826 128.367 358.967 131.387 370.358 133.749C383.572 136.487 417.747 141.21 417.822 141.225C421.205 141.794 420.397 143.515 417.901 145.11C414.379 147.364 410.31 147.612 406.311 147.911C395.32 148.734 384.755 146.114 374.215 143.612C364.867 141.395 355.603 138.808 345.795 136.254C348.636 137.803 351.286 138.342 353.839 139.119C366.404 142.947 379.11 146.135 391.901 149.227C399.598 151.088 404.544 153.62 405.542 154.301C406.278 154.803 406.804 155.52 406.562 156.497C406.341 157.383 405.597 157.695 404.81 157.898C399.906 159.147 394.972 158.793 390.065 158.031C379.524 156.394 369.42 153.097 359.327 149.784C353.398 147.839 347.495 145.805 341.578 143.83C341.066 143.661 340.54 143.373 339.941 143.624C356.804 150.831 397.652 162.309 398.451 162.911C399.25 163.516 400.051 164.293 399.658 165.446C399.307 166.469 398.309 166.629 397.371 166.756C394.579 167.128 391.786 167.037 389.003 166.662C375.026 164.774 361.711 160.633 348.887 154.83C347.059 154.004 345.214 153.215 343.372 152.422C343.266 152.377 343.108 152.461 342.987 152.482C358.601 162.009 390.543 167.667 393.435 171.778C394.703 173.578 394.216 174.697 392.031 175.169C387.968 176.05 383.881 175.669 379.836 175.045C369.208 173.409 359.406 169.452 350.009 164.348C345.91 162.121 341.874 159.804 337.986 157.226C337.493 156.899 337.03 156.319 336.099 156.545C350.082 167.93 381.63 178.558 382.867 179.254C384.183 179.995 385.663 180.875 385.578 182.582C385.49 184.324 383.993 185.425 382.471 185.486C379.028 185.622 357.933 176.885 357.173 177.091C355.906 177.432 377.047 186.581 377.346 188.43C377.818 191.334 371.819 190.535 369.332 189.682C366.258 188.626 357.343 183.904 367.19 190.774C368.791 191.891 370.712 193.821 369.241 195.273C367.686 196.81 360.102 194.598 358.205 192.874C357.197 191.957 363.808 199.206 363.133 200.776C362.534 202.171 358.005 202.068 353.204 199.514C352.575 199.179 355.458 204.567 355.446 205.725C355.406 209.286 352.082 209.425 348.89 208.306C347.907 207.961 349.319 212.826 348.89 213.833C348.006 215.9 346.215 215.927 344.319 215.903C343.353 215.891 340.673 214.13 339.575 214.006C344.688 219.941 340.437 223.493 335.436 220.907C336.362 223.239 338.247 225.671 336.041 227.807C334.051 229.735 329.295 226.004 326.983 225.048C327.401 226.951 331.061 232.802 329.044 234.391C327.334 235.737 323.81 235.658 321.886 235.253C323.111 240.989 324.481 242.952 317.962 241.621C317.925 242.94 319.39 245.27 318.222 246.192C317.093 247.085 315.502 246.543 314.135 246.64C314.135 246.64 314.02 249.203 313.835 249.862C313.242 251.992 312.462 253.438 309.763 252.237C309.246 252.007 307.769 251.287 307.267 250.991C306.105 254.349 305.467 256.793 301.867 256.07C298.705 255.435 296.098 253.629 293.462 251.956C292.93 252.252 293.202 252.582 293.332 252.881C295.792 258.642 298.727 264.139 302.29 269.297C303.053 270.401 304.06 274.283 311.781 279.187C329.143 286.904 346.518 294.604 363.877 302.331C365.91 303.235 367.868 304.306 369.402 305.988C369.937 306.578 370.56 307.223 370.191 308.061C369.852 308.832 369.011 308.702 368.294 308.729C363.65 308.908 359.69 306.796 355.645 304.978C353.894 304.191 352.19 303.296 350.378 302.612C353.013 304.412 355.909 305.716 358.792 307.05C361.847 308.463 365.075 309.546 367.819 311.558C368.999 312.42 370.799 313.304 370.222 314.995C369.592 316.843 367.55 316.317 366.059 316.205C363.526 316.014 361.206 314.974 358.919 313.93C358.408 313.697 357.972 313.264 357.095 313.473C359.243 315.022 361.515 315.987 363.687 317.119C365.475 318.047 367.257 318.973 368.7 320.413C369.622 321.333 370.648 322.313 370.079 323.768C369.505 325.236 368.104 325.226 366.785 325.229C362.25 325.236 358.247 323.423 354.329 321.46C345.526 317.046 337.533 311.304 329.273 305.997C328.339 305.395 345.934 320.564 360.492 330.533C362.794 332.109 365.124 333.7 366.794 336.018C370.476 341.103 369.305 346.262 366.276 345.399C363.529 344.616 355.709 337.615 355.709 337.615C346.397 330.342 337.088 323.066 327.773 315.796C326.339 314.677 324.878 313.588 323.323 312.632C330.559 319.823 338.207 326.527 345.746 333.356C349.093 336.387 364.495 348.292 359.832 352.452C357.863 353.616 355.987 353.15 354.214 352.125C351.894 350.782 350.024 348.863 348.227 346.918C339.663 337.642 330.015 329.429 321.734 319.878C319.589 317.403 317.254 315.092 314.706 312.384C315.366 313.636 317.199 315.972 317.523 316.365C327.594 328.618 336.071 338.284 346.382 350.334C347.126 351.202 347.825 352.122 348.451 353.081C349.201 354.227 349.534 355.516 348.602 356.69C347.416 358.009 344.282 358.366 341.689 356.905C336.519 353.985 329.851 346.231 326.036 341.969C325.519 341.391 324.993 340.825 324.085 340.501C324.79 341.563 325.492 342.628 326.2 343.69C328.351 346.909 330.526 350.113 332.644 353.356C333.306 354.37 333.987 355.404 334.156 356.654C334.356 358.145 333.878 359.358 332.577 360.151C331.394 360.874 330.381 360.302 329.431 359.588C326.651 357.507 324.575 354.739 322.221 352.237C321.858 351.849 321.504 351.453 320.993 351.205C323.634 355.955 324.796 359.259 324.977 359.679C325.271 360.36 325.661 362.72 324.863 363.355C323.38 364.535 321.048 361.219 320.721 360.596C318.391 356.161 315.608 351.995 312.918 347.777C312.008 346.349 310.97 345 309.99 343.618C310.937 345.929 312.241 347.971 313.502 350.04C315.1 352.663 316.812 355.238 317.847 358.151C318.464 359.882 317.741 360.747 315.917 360.656C313.336 360.227 310.943 357.477 308.426 354.506C308.895 355.686 309.128 356.276 309.364 356.869C309.751 357.849 309.945 358.862 309.167 359.706C308.356 360.587 307.267 360.677 306.175 360.317C303.374 359.395 301.334 357.495 299.976 354.96C298.149 351.547 296.524 348.025 294.785 344.564C292.304 339.627 290.567 336.865 288.065 331.94C287.89 331.598 286.97 329.943 286.241 328.781C286.879 330.267 287.421 331.549 287.987 332.826C290.135 337.682 292.304 342.525 294.425 347.393C294.881 348.44 295.278 349.535 295.52 350.648C296.104 353.317 294.576 354.805 291.868 354.161C288.531 353.365 286.646 350.794 284.892 348.125C284.541 347.593 284.299 346.991 283.996 346.395C283.875 346.504 283.715 346.588 283.727 346.646C283.945 347.871 284.734 349.202 283.309 350.176C281.936 351.114 280.523 350.594 279.216 349.956C274.748 347.768 271.952 343.972 269.686 339.739C266.256 333.328 264.583 326.352 263.512 319.236C262.743 314.145 260.489 310.06 256.417 306.902C254.16 305.15 251.894 303.359 250.497 300.624C249.571 301.217 249.843 302.337 249.332 302.836C248.92 303.235 250.173 305.311 248.122 304.146C247.931 304.037 247.822 304.839 247.753 305.229C247.051 309.189 247.913 312.892 249.888 316.616C246.685 315.784 244.567 313.996 242.77 311.225C241.557 314.904 242.821 318.072 243.998 321.778C240.691 318.761 240.368 315.058 239.49 311.588C239.318 311.691 239.239 311.709 239.221 311.752C237.724 315.461 237.742 315.421 234.123 313.639C231.116 312.157 229.011 309.767 227.141 306.869C226.572 307.631 227.395 308.518 226.678 309.089C225.423 308.436 225.174 307.114 224.669 305.925C222.155 307.465 220.906 309.967 219.556 312.514C218.153 311.446 217.938 309.377 215.784 308.62C216.855 310.079 217.417 311.376 217.572 312.871C217.805 315.098 217.169 316.704 214.873 317.318C213.255 317.751 213.793 318.522 214.562 319.254C216.44 321.051 219.484 320.392 220.349 317.941C220.818 316.613 221.009 315.191 221.335 313.77C223.057 315.252 223.444 317.781 222.17 320.658C220.673 324.041 217.741 324.325 214.404 323.656C214.692 325.112 214.48 326.918 215.947 327.247C217.653 327.629 219.517 327.184 220.815 325.638C221.71 324.573 221.949 323.196 222.579 321.929C223.804 326.476 220.845 330.348 215.705 331.456C212.117 332.23 209.282 330.593 206.345 329.129C205.322 328.618 204.354 327.989 203.41 327.338C200.696 325.472 200.705 325.456 197.958 327.577C200.303 329.958 203.186 330.282 206.572 329.501C203.201 332.983 196.476 331.776 194.504 327.828C192.64 324.101 191.1 320.274 191.339 315.911C191.542 312.254 192.861 309.416 196.077 307.537C199.432 305.574 203.023 304.101 206.569 302.546C208.39 301.747 208.853 300.848 207.742 298.951C202.86 290.595 199.71 281.68 199.353 271.893C199.166 266.738 196.285 263.431 191.708 261.392C186.208 258.941 180.587 256.727 175.438 253.559C169.914 250.159 164.831 246.129 160.42 241.409C152.787 233.244 143.475 229.42 132.408 229.444C126.591 229.456 120.794 229.008 115.016 228.331C112.586 228.046 110.311 228.491 108.194 229.744C105.97 231.06 103.78 232.491 101.32 233.295C99.1326 234.012 98.7514 235.295 99.4987 237.237C99.7982 238.018 100.07 238.811 100.376 239.655C95.5839 238.387 92.1592 232.799 92.7612 227.275C93.1727 223.499 94.5522 220.165 97.6592 217.797C99.1508 216.659 99.9253 215.201 100.597 213.476C102.857 207.665 106.859 203.26 112.12 199.956C119.248 195.482 126.642 191.531 134.505 188.499C137.004 187.534 137.049 187.461 135.673 185.053C131.189 177.215 124.654 171.551 116.761 167.361C110.925 164.263 104.914 161.534 98.6909 159.335C90.819 156.551 84.0997 151.744 77.0416 147.5C64.6891 140.066 52.2307 132.8 40.686 124.135C27.913 114.548 16.4016 103.729 8.39349 89.6672C6.30298 85.9975 4.4303 82.2158 3.36539 77.5507C5.38327 78.9303 6.58737 80.4702 7.82474 81.9556L7.8338 81.9405Z" fill="#c2b080"/>
</svg>
